<?xml version="1.0" encoding="UTF-8"?>
<svg id="Layer_1" data-name="Layer 1" xmlns="http://www.w3.org/2000/svg" viewBox="0 0 549.82 156.58">
  <defs>
    <style>
      .cls-1 {
        fill: #f9ed23;
        stroke-width: 0px;
      }
    </style>
  </defs>
  <g id="NBALIn">
    <g>
      <path class="cls-1" d="m57.06,80.43c17.15,0,34.31.06,51.46-.06,2.88-.02,5.02.68,7.02,2.79,5.26,5.55,12.7,10.08,15.52,16.62,2.74,6.34.18,14.78,1.08,22.15,1.29,10.56-2.55,17.86-10.2,25.13-6.89,6.56-13.36,9.65-23.04,9.44-31.13-.66-62.28-.37-93.43-.15-4.62.03-5.51-1.48-5.48-5.68.18-21.82.18-43.64-.01-65.45-.04-4.06,1.29-4.95,5.1-4.91,17.32.19,34.64.08,51.96.08v.02Zm9.53,12.94c-9.16,0-18.31.1-27.47-.06-3.04-.05-4.49.48-4.33,4.01.29,6.31.25,12.65.01,18.97-.13,3.31.97,4.21,4.22,4.18,18.14-.14,36.29-.16,54.43.01,3.47.03,4.22-1.25,4.14-4.34-.16-6.32-.2-12.66.01-18.97.11-3.17-1.08-3.93-4.06-3.87-8.99.17-17.98.06-26.97.06Z"/>
      <path class="cls-1" d="m335.41,156.27c-17.33,0-34.65-.11-51.98.09-3.72.04-4.83-.96-4.78-4.73.2-16.16.14-32.32.06-48.48-.01-2.52.47-4.59,2.58-6.1.13-.1.24-.23.36-.35,5.47-5.34,10.1-12.73,16.66-15.44,6.57-2.71,15.07-.81,22.72-.82,27.99-.03,55.98.1,83.96-.12,4.41-.03,6.15,1.11,5.51,5.48-.14.98-.11,2.01.02,2.99.49,3.71-1.02,4.71-4.76,4.69-28.65-.17-57.31-.11-85.96-.08-7.32,0-6.6-1.04-6.65,6.67-.04,5.5.08,11-.04,16.49-.06,2.62.56,3.91,3.58,3.9,25.82-.1,51.64-.1,77.47,0,3.05.01,3.57-1.32,3.59-3.91.02-2.74-.41-4.25-3.76-4.23-18.32.14-36.66-.16-54.97.22-4.96.1-5.07-1.9-5.21-5.73-.16-4.29.87-5.61,5.43-5.55,22.15.27,44.31.2,66.47.04,3.61-.03,4.97.77,4.85,4.64-.28,8.99-.17,17.99-.04,26.98.04,2.56-.8,4.37-2.62,6.12-5.05,4.84-10.01,9.78-14.84,14.83-1.77,1.85-3.64,2.46-6.15,2.45-17.16-.1-34.32-.05-51.48-.05Z"/>
      <path class="cls-1" d="m549.72,109c0,7.66-.13,15.33.06,22.99.08,3.23-.68,5.74-3.16,7.94-3.11,2.76-6.31,5.55-8.8,8.84-4.67,6.18-10.47,8.44-18.14,7.66-3.51-.36-4.97-.87-4.85-4.76.28-9.16-.04-18.33.16-27.49.07-3.12-.89-3.93-3.94-3.89-13.33.16-26.66.14-39.99,0-2.66-.03-4.3,1.13-6.01,2.84-10.27,10.22-20.58,20.39-30.9,30.56-2.17,2.14-12.45,3.69-15.09,2.43-1.4-.67-1.18-1.86-1.18-2.98-.02-10.33.05-20.66-.07-30.99-.02-2.11.98-3.38,2.31-4.69,11.6-11.49,23.22-22.95,34.73-34.52,1.94-1.95,3.97-2.55,6.63-2.54,27.83.07,55.65.11,83.48-.04,3.63-.02,4.99.78,4.85,4.66-.3,7.99-.09,15.99-.09,23.99Zm-70.03,1.16c8.64,0,17.07.13,25.49-.03,11.57-.23,9.46,2.38,9.79-10.06.07-2.54-.73-3.6-3.37-3.54-5.83.13-11.66.03-17.49.08-.8,0-1.88.04-2.34.53-3.96,4.14-7.81,8.39-12.07,13.03Z"/>
      <path class="cls-1" d="m271.16,109.37c0,7.83-.1,15.67.04,23.49.05,2.87-.66,5.07-2.86,7.04-3.22,2.89-6.58,5.77-9.14,9.21-4.86,6.55-11.19,8.03-18.81,7.26-2.79-.28-3.72-1.01-3.68-3.81.14-9.33-.06-18.66.11-27.99.05-3.14-.74-4.34-4.14-4.3-13.33.19-26.66.14-39.99.01-2.44-.02-4.03.94-5.62,2.53-10.37,10.34-20.79,20.65-31.21,30.94-2.09,2.06-12.75,3.63-15.13,2.3-1.25-.7-1.18-1.91-1.18-3.06-.01-10.33.03-20.66-.05-30.99-.02-2.09,1.05-3.36,2.39-4.68,11.63-11.46,23.27-22.91,34.81-34.47,1.8-1.81,3.61-2.49,6.14-2.48,27.99.08,55.99.11,83.98-.03,3.57-.02,4.52,1.1,4.43,4.53-.22,8.16-.07,16.33-.08,24.49Zm-71.22.79c10.25,0,18.96.1,27.66-.03,10.58-.16,8.89,1.72,9.23-9.23.1-3.15-.73-4.54-4.11-4.41-5.3.21-10.62.04-15.93.04-1.32,0-2.73-.19-3.79.83-4,3.88-7.97,7.79-13.07,12.79Z"/>
      <path class="cls-1" d="m501.19,50.88c11.05-1.65,11.68-2.23,13.1-13.94.46-3.79.43-7.63.65-11.45.15-2.52-.02-4.76-3.33-4.93-2.88-.15-5.55-.43-6.51,3.5-2.46,10.05-6.41,19.57-11.64,28.49-.68,1.16-.7,4.98-3.78,2.6-2.15-1.67-5.33-3.21-2.75-7.17,4.46-6.85,7.68-14.31,10.27-22.07,1.13-3.38.95-4.56-3.06-3.77-2.77.55-6.11,1.76-6.82-3.44-.47-3.44.46-4.17,3.38-4.06.66.03,1.33-.06,1.99-.08,7.41-.28,7.72-.27,7.99-7.91.14-3.94,1.45-4.72,5.04-4.35,2.77.29,3.42,1.42,2.97,3.83-.27,1.47-.5,2.95-.73,4.42-.32,1.96.1,3.18,2.52,3.08,1.64-.07,3.29.35,4.95.51,5,.49,7.32,3.34,7.42,8.27.18,8.84-.36,17.61-2.99,26.12-1.16,3.76-3.18,6.89-7.03,8.58-7.48,3.28-10.17,1.88-11.66-6.23Z"/>
      <path class="cls-1" d="m432.37,11.51c4.17,1.02,7.24-.21,7.04-6.04-.1-2.82,1.21-3.91,4.4-3.23,2.98.63,3.72,2.03,2.76,4.46-1.62,4.11.19,4.3,3.65,4.05,2.16-.16,5.51-2.32,6.48,1.9.49,2.14.27,4.11-2.75,3.88-8.13-.59-11.17,3.77-12.77,11.27-1.83,8.6-5.85,16.57-10.76,23.96-.73,1.1-1.36,3.91-3.47,1.64-1.47-1.59-5.63-2.17-2.94-5.96,5.25-7.39,8.76-15.61,11.64-24.16,1.2-3.55,1.17-5.7-3.47-4.92-.81.14-1.66.03-2.49.02-2.41-.02-4.87.74-4.9-3.47-.03-4.23,2.39-3.45,4.81-3.41.67.01,1.33,0,2.78,0Z"/>
      <path class="cls-1" d="m524.07,12.04c5.56-3.67,6.34-3.72,9.6,1.24,5.04,7.64,7.72,16.06,7.29,25.34-.11,2.27-.78,4.34-2.44,5.79-1.82,1.6-4.07,4.86-6.36,2.42-1.62-1.73-5.91-4.95-.8-8.39,1.66-1.11,1.26-3.61,1.1-5.63-.61-7.81-2.99-14.9-8.39-20.76Z"/>
      <path class="cls-1" d="m467.85,58.85c-3.65-.13-7.29-.2-10.85-1.28-5.84-1.79-9.1-6.22-8.91-12.21.04-1.33.25-2.47,1.79-2.36,1.5.11,3.64-.99,4.3,1.3.73,2.53.74,5.33,3.81,6.49,3.5,1.31,7.07,1.73,10.77,1.21,1.64-.23,3.3-.4,4.95-.55,2.26-.2,4.23-.38,4.25,3.04.02,2.81-.9,3.94-3.64,3.95-2.16,0-4.31.27-6.47.41Z"/>
      <path class="cls-1" d="m468.38,31.99c-2.8-.18-6.59-.43-10.39-.66-3-.18-1.87-2.56-2.17-4.13-.39-1.99.61-2.73,2.52-2.54,5.12.51,10.26.71,15.4.36,2.43-.16,3.07,1.06,3.15,3.29.08,2.31-.62,3.38-3.03,3.29-1.48-.06-2.98.2-5.47.38Z"/>
      <path class="cls-1" d="m472.01,2.1c1.55.17,6.4,7.74,5.86,9.21-.56,1.54-2.14,1.47-2.73.61-1.76-2.56-3.22-5.34-4.63-8.12-.74-1.46.6-1.51,1.5-1.7Z"/>
      <path class="cls-1" d="m541.18,0c1.46.09,1.94,1.21,2.51,2.18,1.16,1.98,2.33,3.95,3.36,6,.7,1.39.11,2.22-1.46,2.18-1.48-.04-6.34-8.43-5.54-9.59.25-.37.79-.54,1.13-.77Z"/>
      <path class="cls-1" d="m470.55,12.27c.41,1.3.17,1.83-.59,2.07-1.04.33-2,.26-2.56-.82-1.14-2.21-2.24-4.43-3.34-6.66-.41-.83-.38-1.73.51-2.12.48-.21,1.54-.06,1.77.3,1.58,2.52,3.01,5.14,4.21,7.23Z"/>
      <path class="cls-1" d="m534.88,2.47c1.94,1.52,2.77,4.09,4.13,6.26.6.95,1.53,2.07.81,3.16-.56.85-2.09.97-2.62.11-1.53-2.54-2.84-5.22-4.07-7.93-.45-.98.44-1.42,1.74-1.6Z"/>
    </g>
  </g>
</svg>